<svg version="1.1" id="Layer_1" xmlns="http://www.w3.org/2000/svg" xmlns:xlink="http://www.w3.org/1999/xlink" x="0px" y="0px"
	 width="100%" viewBox="0 0 288 336" enable-background="new 0 0 288 336" xml:space="preserve">
<path fill="#000000" opacity="1.000000" stroke="none" 
	d="
M180.280792,194.600861 
	C176.269958,185.480865 172.423203,176.704407 168.467865,167.680222 
	C165.653778,169.628036 165.244171,172.033096 164.353546,174.090469 
	C143.649933,221.916718 123.003716,269.767792 102.295952,317.592224 
	C98.581955,326.169678 97.915955,326.463898 89.184067,323.849030 
	C75.798538,319.840607 62.440132,315.740448 49.091965,311.608948 
	C42.536423,309.579834 41.799221,308.360718 43.286919,301.914276 
	C52.361301,262.593536 61.419296,223.268890 70.594696,183.971664 
	C80.076180,143.363525 89.719460,102.793144 99.197090,62.184101 
	C100.455040,56.794136 99.550850,51.227623 99.696724,45.744499 
	C99.934708,36.798100 100.992485,35.683033 109.843948,35.680359 
	C149.164536,35.668476 188.485123,35.667061 227.805710,35.676006 
	C234.721710,35.677578 236.235641,36.763554 235.984055,43.797939 
	C235.087097,68.877487 243.811142,92.224922 248.828781,116.206436 
	C255.018723,145.790939 262.319275,175.141678 268.743378,204.679672 
	C270.104553,210.938187 270.318787,217.538513 270.008209,224.038223 
	C269.793732,228.528076 268.220184,232.252243 264.699768,235.374161 
	C250.121063,248.302582 235.681351,261.388123 221.234787,274.464783 
	C218.674728,276.782074 216.106064,277.377319 212.588562,276.628723 
	C198.625336,273.656952 184.564331,271.148163 170.574203,268.297791 
	C163.203339,266.796021 162.689682,265.988220 162.684586,258.720459 
	C162.675720,246.057907 162.651413,233.395203 162.702606,220.732849 
	C162.723892,215.467300 164.256332,213.909805 169.533478,213.758179 
	C174.028870,213.629028 178.531281,213.608490 183.027695,213.693314 
	C186.897354,213.766342 187.745712,212.149109 186.262100,208.749649 
	C184.264832,204.173294 182.378693,199.548447 180.280792,194.600861 
M56.976421,302.801422 
	C66.686302,305.736633 76.460052,308.480377 86.078835,311.688721 
	C90.813980,313.268097 93.085037,312.274536 95.116486,307.484222 
	C116.950401,255.998138 139.023758,204.613556 161.043076,153.206131 
	C161.895462,151.216095 162.713318,149.295975 162.708542,147.019547 
	C162.654694,121.368301 162.638092,95.716782 162.720673,70.065689 
	C162.731567,66.684891 161.591736,65.128731 158.096436,65.289368 
	C154.772430,65.442146 151.435333,65.303223 148.104004,65.305458 
	C138.546600,65.311867 139.350021,64.767784 139.339630,73.852669 
	C139.331451,81.006012 137.135315,87.265266 131.916931,92.293816 
	C125.543358,98.435524 117.563377,99.902008 109.232910,99.236351 
	C103.423347,98.772110 101.119453,100.871574 99.861839,106.515373 
	C94.407455,130.992905 88.451820,155.358322 82.750336,179.781296 
	C73.650841,218.760025 64.582588,257.746155 55.624058,296.757416 
	C55.208508,298.566956 53.619080,300.956665 56.976421,302.801422 
M197.588699,206.967545 
	C199.284760,209.720398 199.149811,213.830246 204.238983,213.762573 
	C220.899048,213.541000 237.563934,213.652130 254.226791,213.697433 
	C257.700287,213.706879 258.783142,212.767166 258.001190,208.902222 
	C251.411957,176.333984 243.886688,143.973724 236.647324,111.550323 
	C234.005844,99.719788 233.921219,99.738686 221.621201,99.249931 
	C208.528015,98.729668 199.061905,91.166595 197.018265,79.321060 
	C196.513748,76.396675 196.772385,73.343666 196.634781,70.351883 
	C196.542496,68.345726 196.432358,66.296028 193.638229,66.174805 
	C191.906326,68.327095 192.394638,70.747726 192.388092,73.012039 
	C192.333664,91.841003 192.449844,110.670959 192.305893,129.499023 
	C192.166214,147.768173 194.757553,142.839706 180.619492,153.678177 
	C177.343460,156.189636 176.828064,158.531250 178.420853,162.176407 
	C184.821503,176.824554 191.030899,191.556244 197.588699,206.967545 
M173.317108,250.333359 
	C173.347534,258.153748 173.353607,258.122284 180.860809,259.570526 
	C190.308807,261.393127 199.784912,263.099426 209.167648,265.216095 
	C212.852173,266.047333 215.512238,265.257446 218.206131,262.788208 
	C229.240280,252.674240 240.433029,242.733124 251.452576,232.603470 
	C253.814377,230.432404 256.552795,228.450348 257.848724,225.470612 
	C257.168396,224.297394 256.268188,224.403000 255.471375,224.402206 
	C229.522690,224.376038 203.573929,224.388550 177.625336,224.329086 
	C174.360855,224.321594 173.252899,225.822815 173.299133,228.919373 
	C173.400940,235.737686 173.323318,242.558670 173.317108,250.333359 
M180.121078,140.316223 
	C181.344223,139.238297 181.685944,137.833939 181.685730,136.269379 
	C181.682602,113.960129 181.672241,91.650841 181.713867,69.341660 
	C181.719604,66.267975 180.182358,65.396423 177.349670,65.312408 
	C173.300293,65.192322 173.309280,67.760544 173.311859,70.600121 
	C173.332932,93.741974 173.318268,116.883865 173.350250,140.025696 
	C173.352005,141.291290 172.924622,142.700165 174.255753,144.032028 
	C176.325684,143.603821 177.766327,141.888901 180.121078,140.316223 
M108.236305,71.625427 
	C107.119522,77.051369 105.114876,82.332840 104.949471,88.114357 
	C108.653015,88.890038 111.744675,88.711655 114.891907,88.312057 
	C121.688622,87.449097 126.335564,84.061455 128.225113,77.340454 
	C130.863678,67.955208 128.919769,65.339851 119.403229,65.317047 
	C118.070564,65.313858 116.713684,65.477982 115.409630,65.284363 
	C111.043411,64.636116 108.829155,66.576683 108.236305,71.625427 
M228.592224,75.839355 
	C225.704102,65.310783 225.704102,65.310257 214.723099,65.320740 
	C213.562622,65.321854 212.400665,65.374390 211.241959,65.332413 
	C208.543030,65.234627 207.508591,66.491478 207.296875,69.199791 
	C206.316879,81.736229 210.392227,86.856567 222.950867,88.520325 
	C230.412018,89.508766 231.210190,88.687729 229.739594,81.514160 
	C229.407578,79.894577 229.046814,78.280884 228.592224,75.839355 
M224.905304,50.481522 
	C224.906967,48.345367 224.673401,46.357044 221.844727,46.342953 
	C218.019791,46.323895 214.193710,46.300705 210.369873,46.372395 
	C207.595398,46.424408 207.364563,48.403984 207.332504,50.564503 
	C207.298889,52.830147 207.807388,54.583916 210.517990,54.603207 
	C214.342560,54.630421 218.167725,54.640781 221.992096,54.603737 
	C224.117294,54.583153 224.841003,53.224735 224.905304,50.481522 
M115.813019,54.678047 
	C118.954758,54.642502 122.102859,54.717094 125.236168,54.535778 
	C127.644676,54.396404 128.547928,52.766090 128.661484,50.471619 
	C128.783691,48.002403 127.620308,46.651093 125.268578,46.518753 
	C121.969543,46.333107 118.657158,46.398964 115.352280,46.298359 
	C112.892891,46.223492 111.143730,46.790096 111.121521,49.774002 
	C111.101227,52.501553 111.273575,54.883301 115.813019,54.678047 
M139.984390,47.397907 
	C138.624969,54.037758 139.085297,54.632092 145.657867,54.676975 
	C146.817627,54.684895 147.977661,54.646240 149.137604,54.636581 
	C152.004074,54.612705 152.672028,52.868938 152.725388,50.370193 
	C152.782990,47.672810 151.695862,46.295502 148.958084,46.365719 
	C146.163498,46.437393 143.327621,45.834278 139.984390,47.397907 
M191.936218,54.648216 
	C194.757874,54.466225 196.892166,53.512398 196.531708,50.152832 
	C196.184631,46.918190 193.896286,46.270889 191.139282,46.336628 
	C189.644485,46.372269 188.148163,46.373260 186.652969,46.354790 
	C184.364807,46.326527 183.470001,47.500404 183.287155,49.719521 
	C182.731918,56.457428 187.719498,54.255356 191.936218,54.648216 
M168.351608,54.643204 
	C172.452042,54.536678 171.989838,51.574177 171.821686,48.934238 
	C171.661346,46.417500 169.721527,46.354095 167.819031,46.327332 
	C165.677216,46.297195 164.281525,47.131927 164.203613,49.436661 
	C164.119705,51.919060 163.633408,54.711208 168.351608,54.643204 
z"/>
</svg>