<svg version="1.1" id="Layer_1" xmlns="http://www.w3.org/2000/svg" xmlns:xlink="http://www.w3.org/1999/xlink" x="0px" y="0px"
	 width="100%" viewBox="0 0 304 336" enable-background="new 0 0 304 336" xml:space="preserve">
<path fill="#000000" opacity="1.000000" stroke="none" 
	d="
M42.390862,284.339752 
	C35.850769,260.391144 30.895397,236.471466 25.897509,212.567581 
	C24.506376,205.914062 25.277069,199.509476 31.736986,195.313232 
	C33.766647,193.994812 33.788731,192.090607 33.670856,190.033142 
	C33.100327,180.074768 32.361370,170.121185 32.039204,160.154373 
	C31.200109,134.195343 37.061497,109.862991 51.295872,88.013283 
	C73.088951,54.560997 103.979538,35.077564 143.569244,29.586164 
	C212.915436,19.967308 277.174744,67.117424 288.045898,135.927582 
	C290.680695,152.604813 289.351990,169.489151 287.753754,186.235367 
	C287.333405,190.639801 287.158905,194.087662 291.298859,197.128021 
	C296.644745,201.053986 296.078033,207.284714 295.008789,212.802292 
	C290.582458,235.643356 285.553223,258.365021 279.656036,280.874817 
	C276.875061,291.489960 270.636719,295.160248 259.847473,292.868439 
	C256.585114,292.175446 254.177444,292.424438 251.763474,294.931793 
	C248.308868,298.520020 243.891449,299.716278 238.954498,298.760681 
	C234.225510,297.845367 229.437607,297.157990 224.781281,295.959717 
	C215.101273,293.468628 210.978729,287.504700 212.938156,277.801086 
	C219.251495,246.536057 226.143143,215.392685 233.865784,184.442123 
	C235.355347,178.472260 241.158783,174.724640 247.980270,174.686890 
	C254.554352,174.650513 254.590591,174.611374 254.682632,167.985458 
	C254.883484,153.524597 255.874466,139.011017 250.695312,125.026970 
	C237.797089,90.201088 213.080399,68.869240 176.655762,62.470200 
	C124.056061,53.229530 77.888885,87.978119 67.877213,135.402924 
	C65.962234,144.474075 65.681648,167.544266 67.725273,174.677246 
	C69.772247,175.537979 71.897194,174.536087 74.010757,174.641693 
	C80.328896,174.957336 85.711609,178.811096 87.250328,184.918655 
	C95.004372,215.696442 101.668312,246.724380 108.083046,277.801819 
	C110.054138,287.351196 105.727905,293.636810 96.220802,295.990570 
	C91.228470,297.226593 86.145737,298.157776 81.059250,298.934723 
	C76.732544,299.595673 72.647713,298.456177 69.609451,295.266754 
	C66.960434,292.485992 64.317596,292.140381 60.657238,292.945038 
	C51.848484,294.881531 45.561176,291.789185 42.390862,284.339752 
M195.948334,42.587627 
	C145.525085,27.590391 95.031570,45.915588 65.548157,83.614624 
	C53.827984,98.600662 46.466286,115.537331 42.684425,134.121628 
	C40.193249,146.363419 41.076767,184.025620 44.137760,189.251740 
	C45.924606,185.374802 47.763840,181.177170 51.912663,179.830002 
	C57.489182,178.019196 58.272552,174.353180 57.719456,169.445770 
	C57.478081,167.304123 57.799484,165.101486 57.589878,162.953430 
	C55.448448,141.007751 60.102699,120.553192 71.513382,101.770538 
	C94.607597,63.756119 136.646286,47.043842 176.669006,53.057289 
	C202.175522,56.889664 223.503677,68.907974 240.288818,88.566460 
	C253.507889,104.048424 261.237396,121.963982 263.433685,142.294937 
	C264.495361,152.122940 264.444244,161.880585 263.435944,171.691879 
	C263.218781,173.805099 262.224915,176.838104 265.180328,177.855331 
	C271.271729,179.951965 275.250183,183.943130 277.390350,190.222580 
	C279.264130,186.818451 278.897217,183.279343 279.105743,179.982208 
	C280.124847,163.871277 281.550995,147.612793 277.965240,131.723175 
	C267.819427,86.764198 239.965057,57.691349 195.948334,42.587627 
M65.791977,249.889374 
	C68.375557,261.207184 70.981804,272.519897 73.531914,283.845245 
	C74.596428,288.572906 77.381683,290.648132 82.204964,289.716553 
	C85.787903,289.024506 89.392410,288.398865 92.923889,287.495697 
	C99.022133,285.936066 100.474762,283.437439 99.123604,277.301880 
	C95.949928,262.890350 92.831322,248.466278 89.567154,234.075256 
	C86.300667,219.673981 82.913544,205.299789 79.520905,190.927536 
	C77.941315,184.235855 76.015244,182.987396 69.422073,184.307373 
	C66.170158,184.958420 62.919727,185.681061 59.739952,186.614319 
	C53.925613,188.320786 52.682869,190.630417 53.994144,196.588516 
	C57.845196,214.086624 61.680531,231.588211 65.791977,249.889374 
M259.405945,186.171127 
	C256.491302,185.519669 253.587280,184.815338 250.659775,184.228119 
	C245.128891,183.118729 243.056290,184.276138 241.767776,189.865173 
	C234.945572,219.456802 228.201721,249.066681 221.523254,278.691101 
	C220.582443,282.864410 222.275253,285.885071 226.602188,287.012146 
	C230.132706,287.931824 233.659348,288.936035 237.248276,289.547058 
	C244.217804,290.733551 246.072830,289.491821 247.682831,282.399139 
	C254.110931,254.080917 260.443054,225.740891 266.821442,197.411346 
	C268.458771,190.139084 267.501465,188.510178 259.405945,186.171127 
M61.017345,283.648285 
	C63.609291,282.923370 63.560448,281.321381 63.030724,279.003174 
	C58.925117,261.035889 54.984329,243.031036 50.965652,225.043823 
	C49.169979,217.006561 47.312546,208.983093 45.505802,201.052811 
	C36.177956,202.105438 33.334591,204.671143 34.669373,210.652115 
	C39.663197,233.028839 44.713200,255.393463 49.870689,277.732941 
	C51.421368,284.449646 53.460041,285.483093 61.017345,283.648285 
M268.592041,283.148468 
	C270.725769,281.612244 270.822266,279.096954 271.343170,276.909088 
	C274.531342,263.518860 277.601837,250.100357 280.653442,236.678055 
	C282.637939,227.949417 284.594696,219.213150 286.426453,210.451569 
	C287.456543,205.524475 285.326080,202.834747 280.157501,201.523468 
	C275.161926,200.256119 274.774841,203.641968 274.026428,207.030640 
	C268.804565,230.674194 263.695862,254.345337 258.125671,277.907135 
	C256.987671,282.720825 258.948761,283.778229 262.661926,284.468536 
	C264.560486,284.821533 266.287781,284.424774 268.592041,283.148468 
z"/>
</svg>