<svg version="1.1" id="Layer_1" xmlns="http://www.w3.org/2000/svg" xmlns:xlink="http://www.w3.org/1999/xlink" x="0px" y="0px"
	 width="100%" viewBox="0 0 320 320" enable-background="new 0 0 320 320" xml:space="preserve">
<path fill="#000000" opacity="1.000000" stroke="none" 
	d="
M118.875122,291.911835 
	C103.746773,303.890289 87.395874,312.439331 68.568329,315.810974 
	C59.007359,317.523132 49.437656,318.208191 39.831985,316.393433 
	C38.074738,316.061432 36.130268,315.498383 34.781513,314.410553 
	C16.032593,299.288483 8.152181,274.222260 28.823400,255.639130 
	C36.997627,248.290588 45.350315,241.139221 53.682598,233.968781 
	C55.879013,232.078629 57.557987,229.951675 58.679352,227.251022 
	C71.191925,197.116241 83.812515,167.026169 96.274734,136.870651 
	C99.586899,128.856033 98.594215,120.137245 99.554565,111.752357 
	C100.952599,99.546196 101.586082,87.254440 102.727936,75.016205 
	C103.398125,67.833237 108.750160,63.073860 116.097031,62.689293 
	C135.962082,61.649471 149.290161,70.020752 156.183670,88.813782 
	C158.121307,94.096199 160.651581,95.003952 165.388947,93.509651 
	C178.576874,89.349808 190.510544,83.814819 193.227249,68.226830 
	C194.377274,61.628197 193.522751,54.932995 193.709702,48.284389 
	C193.934769,40.280594 196.442245,33.552490 204.092087,29.768614 
	C211.740677,25.985346 219.011337,27.135532 225.692947,32.056545 
	C247.039536,47.778362 264.412872,67.167496 277.689789,90.061775 
	C284.393677,101.621750 290.642975,113.235596 301.691376,121.560951 
	C307.210266,125.719604 307.515137,132.246780 305.498016,138.493820 
	C300.641968,153.533218 290.443756,164.723770 278.145782,173.911407 
	C233.314728,207.403961 188.289734,240.636963 143.327652,273.954041 
	C135.298538,279.903625 127.220955,285.787842 118.875122,291.911835 
M262.115265,102.596130 
	C262.770813,102.081795 263.426788,101.567940 264.081879,101.053032 
	C269.371979,96.894989 269.407806,96.871452 265.662415,91.143929 
	C259.085358,81.086227 251.955429,71.431320 243.633026,62.746704 
	C235.790436,54.562801 227.620499,46.670227 218.151993,40.356735 
	C211.524536,35.937626 205.494583,39.303841 205.125916,47.303284 
	C204.865723,52.949581 204.613571,58.596317 204.330231,64.241478 
	C203.634521,78.101860 198.360107,89.350052 185.922134,96.530075 
	C180.555573,99.628014 175.008026,102.644981 168.903473,103.487610 
	C162.564377,104.362625 160.132248,108.011879 158.230469,113.491692 
	C148.406342,141.799011 138.291000,170.005173 128.297440,198.253784 
	C124.967499,207.666458 118.986153,214.688828 109.854836,218.890503 
	C101.836868,222.579865 93.763924,226.151581 85.780334,229.913376 
	C77.967171,233.594864 69.298302,235.733643 62.490108,241.218369 
	C52.896893,248.946732 43.710445,257.185242 34.451454,265.321045 
	C29.823820,269.387299 27.853193,274.881500 27.414265,280.849457 
	C26.972975,286.849487 28.982679,289.161072 34.910564,289.577759 
	C42.923527,290.141052 50.858036,289.669617 58.594551,287.151947 
	C80.848038,279.909973 98.663589,265.970825 113.735359,248.766403 
	C132.956970,226.824921 152.971008,206.064880 178.991653,192.072128 
	C181.008957,190.987305 182.157623,189.154572 183.159958,187.221039 
	C196.427628,161.627579 215.753845,141.970016 241.003937,128.099472 
	C242.595856,127.224991 244.499252,126.470085 244.828217,124.422249 
	C246.472351,114.187561 253.947220,108.570480 262.115265,102.596130 
M209.107010,211.568130 
	C225.108810,199.625153 241.077194,187.636887 257.143829,175.781799 
	C259.965515,173.699768 260.923553,171.854630 259.332581,168.330093 
	C255.640076,160.149765 252.456696,151.740555 249.003891,143.450378 
	C248.257309,141.657867 247.672546,139.661713 245.707291,138.757309 
	C215.880493,149.614441 180.117645,200.260986 181.128754,231.252121 
	C191.273117,225.663712 199.600235,218.370132 209.107010,211.568130 
M114.245842,201.695068 
	C115.926941,199.583191 117.025459,197.179291 117.923386,194.647430 
	C125.874649,172.227280 133.860855,149.819550 141.814377,127.400215 
	C144.184097,120.720535 146.483185,114.015808 148.816132,107.318207 
	C132.539337,102.196571 119.635437,105.511589 116.055786,120.049713 
	C118.287071,119.597694 120.359444,118.949501 122.466339,118.805099 
	C125.548531,118.593834 129.212662,117.840446 130.118515,122.250229 
	C130.938934,126.244141 128.195587,127.955605 124.965630,129.007629 
	C121.486389,130.140854 118.008812,131.345322 114.446198,132.141418 
	C108.646263,133.437469 107.498482,137.806900 106.408897,142.718750 
	C109.842491,143.135559 112.438614,141.824356 115.144867,141.172226 
	C118.706306,140.313980 122.000404,140.295471 123.286079,144.479340 
	C124.533875,148.539932 121.758530,150.220886 118.486839,151.259094 
	C114.048691,152.667450 109.636528,154.221481 105.111328,155.275650 
	C99.401085,156.605896 97.671463,160.596451 96.916763,166.009338 
	C101.465202,166.178406 105.310242,164.413269 109.235329,163.398529 
	C113.050102,162.412338 115.551666,163.371262 116.758492,166.949524 
	C118.042549,170.756775 115.501221,172.498032 112.394455,173.476028 
	C106.684402,175.273544 100.925873,176.917084 95.187675,178.625198 
	C89.551331,180.302994 87.511040,183.228958 87.650726,189.872559 
	C92.368057,188.623398 96.987823,187.375168 101.621567,186.181213 
	C105.090721,185.287354 108.614655,185.100388 109.881821,189.286484 
	C111.207298,193.665176 107.746437,195.140244 104.493332,196.210556 
	C99.123199,197.977386 93.691719,199.561234 88.268051,201.161026 
	C80.574265,203.430420 73.666763,213.645767 74.146988,222.611069 
	C83.838875,219.223419 92.891327,214.662857 102.187225,210.696350 
	C106.708862,208.766983 110.618706,206.022980 114.245842,201.695068 
M58.907665,306.353638 
	C76.690033,304.379272 92.638779,297.962524 106.952919,287.159729 
	C125.299324,273.313843 143.797256,259.666077 162.366821,246.120651 
	C166.353882,243.212326 168.739517,240.203552 169.287491,234.924957 
	C170.189331,226.237595 172.308914,217.676666 174.019989,208.499985 
	C172.686691,209.110580 171.746078,209.393707 170.969345,209.919113 
	C158.225418,218.539352 146.329147,228.168976 136.393768,239.990387 
	C124.474213,254.172668 112.123100,267.896301 97.086189,278.911163 
	C80.729301,290.892944 63.424679,300.476654 42.315796,300.381042 
	C40.708912,300.373779 38.981548,300.528046 37.978233,302.496918 
	C39.796799,305.555115 42.875202,306.379791 46.023853,306.564148 
	C50.004620,306.797302 54.012711,306.563995 58.907665,306.353638 
M287.572388,123.946434 
	C282.136658,119.461586 278.516602,113.460709 274.379333,107.149849 
	C269.968323,110.526688 265.835205,113.317642 262.137115,116.598946 
	C254.236679,123.608978 254.231552,126.791161 257.386383,134.427109 
	C261.618988,144.671722 265.744202,154.960693 270.164520,165.843597 
	C279.304016,159.408829 286.087952,151.969177 291.486725,143.310089 
	C297.719940,133.312653 297.323792,131.785263 287.572388,123.946434 
M113.392586,77.101273 
	C112.832413,85.884552 110.664368,94.589890 111.565880,103.963898 
	C114.387352,101.818748 116.499664,99.914848 118.884468,98.456573 
	C125.524971,94.396042 132.750397,93.307594 140.435043,94.451683 
	C144.866486,95.111427 146.298691,93.643707 144.826035,90.174377 
	C139.451080,77.511887 130.759140,73.180260 117.671471,73.348541 
	C115.612862,73.375008 114.213676,74.336624 113.392586,77.101273 
z"/>
<path fill="#000000" opacity="1.000000" stroke="none" 
	d="
M232.642181,173.003998 
	C232.096481,169.998230 231.430374,167.411667 231.210327,164.787689 
	C230.974594,161.976501 231.630753,159.350357 235.019485,158.795181 
	C238.191025,158.275574 240.608490,159.224243 241.365524,162.740982 
	C241.922592,165.328751 242.592667,167.894379 243.076996,170.495071 
	C243.776749,174.252579 243.293671,177.850021 239.038605,178.895081 
	C234.930389,179.904068 233.769669,176.477890 232.642181,173.003998 
z"/>
<path fill="#000000" opacity="1.000000" stroke="none" 
	d="
M219.917389,192.700058 
	C215.719482,192.750214 214.494690,190.097992 213.823257,187.024658 
	C213.083954,183.640656 212.435471,180.247528 212.678467,176.725555 
	C212.852448,174.203842 214.073029,172.692017 216.426407,172.146912 
	C218.586533,171.646576 220.697327,172.434692 221.523346,174.319458 
	C223.586426,179.026810 224.856873,184.006989 224.091339,189.223984 
	C223.796997,191.229935 222.261185,192.271591 219.917389,192.700058 
z"/>
</svg>