<svg version="1.1" id="Layer_1" xmlns="http://www.w3.org/2000/svg" xmlns:xlink="http://www.w3.org/1999/xlink" x="0px" y="0px"
	 width="100%" viewBox="0 0 288 336" enable-background="new 0 0 288 336" xml:space="preserve">
<path fill="#000000" opacity="1.000000" stroke="none" 
	d="
M53.763237,222.032349 
	C62.771866,183.607071 71.716705,145.595078 80.663887,107.583633 
	C84.776756,90.110367 88.892632,72.637810 93.010391,55.165691 
	C94.408081,49.235149 93.438286,43.216915 93.665359,37.243092 
	C93.896011,31.175318 95.078384,29.743355 100.997269,29.735914 
	C141.495026,29.684996 181.992859,29.700277 222.490646,29.665775 
	C226.253906,29.662569 229.369370,30.587557 229.259827,35.040977 
	C228.707977,57.477566 235.270462,78.706161 240.138779,100.224739 
	C247.692810,133.614532 255.361649,166.978973 262.726044,200.410522 
	C264.305328,207.579971 263.348938,215.018433 263.111389,222.329803 
	C263.039062,224.556747 261.435730,226.292480 259.844543,227.795334 
	C244.823502,241.982758 229.473892,255.804977 213.768723,269.232880 
	C212.007233,270.738953 210.231293,271.435059 207.841049,270.951996 
	C193.187592,267.990601 178.495468,265.218842 163.854095,262.200104 
	C156.795349,260.744720 155.973053,259.524261 155.952866,252.442459 
	C155.919601,240.776672 155.899750,229.110764 155.909500,217.444931 
	C155.916611,208.932724 157.099884,207.854599 165.834869,207.654709 
	C170.786285,207.541412 175.783142,208.200424 181.386276,206.983078 
	C175.544266,191.528900 168.940659,176.757614 161.958176,161.811630 
	C159.339279,163.189377 159.026169,165.495743 158.238632,167.323410 
	C144.595673,198.984985 131.073837,230.698776 117.426636,262.358521 
	C109.976486,279.641846 102.242004,296.803040 94.854866,314.112854 
	C92.786591,318.959290 89.916466,320.081207 85.021400,318.530487 
	C71.062935,314.108643 56.994061,310.036652 43.010002,305.693787 
	C35.766708,303.444336 35.291740,302.619049 36.952484,295.320831 
	C42.482895,271.017273 48.110229,246.735794 53.763237,222.032349 
M53.427670,271.798920 
	C52.006271,278.456726 50.793579,285.168884 49.079468,291.750458 
	C48.159042,295.284607 49.517502,296.604126 52.563702,297.486450 
	C61.830341,300.170441 71.142815,302.734528 80.277802,305.818237 
	C84.723663,307.319031 86.717705,306.313934 88.551819,301.999237 
	C107.901939,256.478790 127.053391,210.866028 147.166336,165.682297 
	C153.644287,151.129562 156.778305,136.724060 156.101456,120.877373 
	C155.327026,102.745483 155.923279,84.554916 155.929703,66.389847 
	C155.932190,59.351624 155.939331,59.350166 148.670746,59.334667 
	C145.504349,59.327915 142.315201,59.567944 139.176880,59.269730 
	C134.461014,58.821625 133.097580,60.867397 133.209305,65.350380 
	C133.425293,74.017128 131.100754,81.825264 124.055809,87.608444 
	C118.291656,92.340225 111.447197,93.249901 104.334389,93.306694 
	C95.350143,93.378426 95.282822,93.380333 93.251854,102.026657 
	C80.024017,158.340988 66.827843,214.662735 53.427670,271.798920 
M206.363739,91.521690 
	C196.604141,88.005180 191.345276,81.239120 190.489990,70.736031 
	C190.190353,67.056274 190.743546,62.940651 188.464584,59.218498 
	C185.432755,60.991638 186.303238,63.397697 186.296341,65.346779 
	C186.229813,84.156601 185.661377,102.993690 186.495453,121.767044 
	C187.016159,133.487259 184.728287,142.707825 173.608383,148.271210 
	C170.478012,149.837372 170.310776,152.116058 171.701141,155.300049 
	C178.691010,171.307159 185.541794,187.376846 192.232300,203.511292 
	C193.634293,206.892288 195.705902,207.773621 199.113129,207.743942 
	C214.592804,207.609070 230.074341,207.699829 245.555191,207.681442 
	C251.818024,207.674011 252.551178,206.766068 251.244217,200.662689 
	C247.664642,183.946503 244.136841,167.218674 240.441452,150.528015 
	C236.638260,133.350311 232.515320,116.242096 228.859711,99.033928 
	C227.903656,94.533417 225.914230,92.881027 221.439774,93.247192 
	C216.622086,93.641449 211.802567,93.213425 206.363739,91.521690 
M167.291687,222.933868 
	C167.290146,231.253632 167.357071,239.574249 167.250778,247.892685 
	C167.212448,250.892059 168.213867,252.273972 171.369995,252.862625 
	C182.131989,254.869843 192.825134,257.245026 203.550232,259.452271 
	C206.274857,260.013000 208.632004,259.641022 210.885818,257.575531 
	C223.150284,246.335846 235.557358,235.251923 247.867630,224.061920 
	C249.287170,222.771576 251.067383,221.600342 251.199493,219.077957 
	C250.403671,218.877533 249.627594,218.512924 248.850571,218.510925 
	C222.894638,218.443893 196.938629,218.414108 170.982620,218.369659 
	C168.499466,218.365402 167.317871,219.598846 167.291687,222.933868 
M175.601883,121.459686 
	C175.615524,102.500526 175.587097,83.541161 175.682419,64.582413 
	C175.699173,61.251610 175.112976,59.153431 171.073883,59.326790 
	C166.956940,59.503483 167.294128,62.257469 167.292770,64.926575 
	C167.281097,87.877144 167.275833,110.827759 167.326462,133.778229 
	C167.329437,135.129013 166.661957,136.798492 168.395279,137.823776 
	C173.453735,135.681686 176.715424,132.482788 175.657120,126.427292 
	C175.431320,125.135193 175.612534,123.771973 175.601883,121.459686 
M110.264679,81.835648 
	C121.249161,80.069817 122.794212,70.377022 122.578552,62.189571 
	C122.523361,60.094040 121.044548,59.587540 119.202179,59.341923 
	C104.992386,57.447529 103.608368,58.345501 100.303795,71.897102 
	C100.225395,72.218590 100.179558,72.548050 100.100128,72.869247 
	C97.530937,83.258202 98.466988,84.173698 110.264679,81.835648 
M204.119720,59.400867 
	C201.767136,59.621483 201.330963,61.226318 201.117249,63.230194 
	C199.817535,75.416710 204.062103,81.159904 216.236679,82.396446 
	C223.468338,83.130936 226.025757,83.906799 223.316620,75.036346 
	C222.931580,73.775635 222.873703,72.417931 222.531387,71.140785 
	C218.842804,57.379238 221.873123,59.572716 207.988358,59.335583 
	C206.993027,59.318584 205.997009,59.342281 204.119720,59.400867 
M105.580292,48.163864 
	C109.848885,49.249641 114.189133,48.461987 118.492180,48.652100 
	C121.506699,48.785278 122.543068,47.128700 122.623444,44.304287 
	C122.713554,41.137287 121.025467,40.246563 118.268440,40.287933 
	C115.771019,40.325417 113.272156,40.255165 110.774254,40.274281 
	C104.189819,40.324661 103.655334,41.012333 105.580292,48.163864 
M206.781982,40.261078 
	C203.414963,40.067471 200.947357,40.636440 201.114548,45.002655 
	C201.274979,49.191879 204.056717,48.648815 206.673508,48.676846 
	C209.155914,48.703442 211.642365,48.596546 214.120636,48.700722 
	C217.106857,48.826244 218.764801,47.918526 218.751846,44.519436 
	C218.739151,41.184677 217.166519,40.136200 214.154617,40.250694 
	C212.006180,40.332371 209.851944,40.260818 206.781982,40.261078 
M146.637543,44.495476 
	C145.935928,37.361717 140.412109,41.221691 137.010468,40.380917 
	C135.591293,40.030136 133.885529,40.520844 133.531128,42.398243 
	C133.195282,44.177528 132.814865,46.137379 134.052994,47.678715 
	C136.120987,50.253151 145.306671,48.443916 146.637543,44.495476 
M179.163986,48.603268 
	C181.652725,48.611107 184.141922,48.649944 186.630051,48.614864 
	C188.065048,48.594631 189.349808,48.104397 189.532043,46.486340 
	C189.732437,44.707054 190.410034,42.493607 188.902878,41.280262 
	C186.868332,39.642326 184.113480,40.356091 181.661652,40.366070 
	C179.785248,40.373703 177.247253,39.718342 176.672394,42.378136 
	C176.212708,44.505066 175.489197,47.088554 179.163986,48.603268 
M165.080704,47.539921 
	C165.266525,46.754173 165.607971,45.968109 165.606354,45.182747 
	C165.602798,43.450047 166.148529,41.264462 163.828049,40.618675 
	C161.979828,40.104313 159.805801,39.703606 158.217865,41.203827 
	C156.756699,42.584278 157.002396,44.735184 157.549240,46.319366 
	C158.864929,50.130737 161.908142,48.577438 165.080704,47.539921 
z"/>
</svg>