<svg version="1.1" id="Layer_1" xmlns="http://www.w3.org/2000/svg" xmlns:xlink="http://www.w3.org/1999/xlink" x="0px" y="0px"
	 width="100%" viewBox="0 0 328 342" enable-background="new 0 0 328 342" xml:space="preserve">
<path fill="#FFFFFF" opacity="1.000000" stroke="none" 
	d="
M0.999999,330.000000 
	C1.000000,223.311905 1.000000,116.623802 1.344878,9.435266 
	C4.126504,6.289883 6.563252,3.644941 9.000000,1.000000 
	C115.619102,1.000000 222.238205,1.000000 328.928650,1.000000 
	C328.928650,114.901550 328.928650,228.803162 328.928650,343.000000 
	C224.312088,343.000000 119.623894,343.000000 14.436291,342.654968 
	C9.624581,338.206635 5.312290,334.103333 0.999999,330.000000 
M281.291016,53.170258 
	C278.248352,51.486958 275.352570,49.423302 272.138977,48.182682 
	C252.748016,40.696651 233.296890,33.365387 213.825653,26.090015 
	C211.860931,25.355909 209.628677,25.044024 207.518936,25.037067 
	C185.188156,24.963444 162.856995,24.968498 140.526138,25.031704 
	C138.579895,25.037212 136.515091,25.289497 134.708267,25.967699 
	C114.624260,33.506321 94.585129,41.164349 74.523094,48.761654 
	C66.710381,51.720257 61.230667,57.209976 58.591888,64.955208 
	C48.990387,93.137077 39.612606,121.396088 30.323645,149.682877 
	C28.037045,156.646042 33.085766,164.221405 40.327671,165.096893 
	C47.098953,165.915466 53.909069,166.422928 60.707432,167.004959 
	C69.771004,167.780914 78.839745,168.496536 88.147537,169.257797 
	C88.147537,171.059937 88.144958,172.376770 88.147911,173.693619 
	C88.235107,212.518631 88.317680,251.343643 88.414322,290.168640 
	C88.436874,299.228821 88.473717,299.359039 96.447853,301.946625 
	C116.172791,308.347382 136.365341,312.187927 157.103806,313.339691 
	C188.462738,315.081329 219.288345,312.449799 249.323761,302.820068 
	C259.846680,299.446259 259.833435,299.370911 259.850403,288.226654 
	C259.907684,250.566086 259.956665,212.905502 260.008270,175.244934 
	C260.010925,173.307480 260.008606,171.370026 260.008606,169.386887 
	C276.054962,167.987717 291.471863,166.824783 306.844360,165.232895 
	C315.633392,164.322754 320.325226,157.033905 317.601044,148.771179 
	C308.597443,121.462242 299.592377,94.150597 290.142242,66.995064 
	C288.461578,62.165504 284.650696,58.077259 281.291016,53.170258 
z"/>
<path fill="#F3F2F8" opacity="1.000000" stroke="none" 
	d="
M0.999999,330.476654 
	C5.312290,334.103333 9.624581,338.206635 13.968437,342.654968 
	C9.743699,343.000000 5.487399,343.000000 1.000000,343.000000 
	C1.000000,338.986237 1.000000,334.969788 0.999999,330.476654 
z"/>
<path fill="#F5F4FA" opacity="1.000000" stroke="none" 
	d="
M8.505266,1.000000 
	C6.563252,3.644941 4.126504,6.289883 1.344878,8.967413 
	C1.000000,6.417543 1.000000,3.835086 1.000000,1.000000 
	C3.333921,1.000000 5.672227,1.000000 8.505266,1.000000 
z"/>
<path fill="#CA2474" opacity="1.000000" stroke="none" 
	d="
M281.557251,53.408482 
	C284.650696,58.077259 288.461578,62.165504 290.142242,66.995064 
	C299.592377,94.150597 308.597443,121.462242 317.601044,148.771179 
	C320.325226,157.033905 315.633392,164.322754 306.844360,165.232895 
	C291.471863,166.824783 276.054962,167.987717 260.008606,169.386887 
	C260.008606,171.370026 260.010925,173.307480 260.008270,175.244934 
	C259.956665,212.905502 259.907684,250.566086 259.850403,288.226654 
	C259.833435,299.370911 259.846680,299.446259 249.323761,302.820068 
	C219.288345,312.449799 188.462738,315.081329 157.103806,313.339691 
	C136.365341,312.187927 116.172791,308.347382 96.447853,301.946625 
	C88.473717,299.359039 88.436874,299.228821 88.414322,290.168640 
	C88.317680,251.343643 88.235107,212.518631 88.147911,173.693619 
	C88.144958,172.376770 88.147537,171.059937 88.147537,169.257797 
	C78.839745,168.496536 69.771004,167.780914 60.707432,167.004959 
	C53.909069,166.422928 47.098953,165.915466 40.327671,165.096893 
	C33.085766,164.221405 28.037045,156.646042 30.323645,149.682877 
	C39.612606,121.396088 48.990387,93.137077 58.591888,64.955208 
	C61.230667,57.209976 66.710381,51.720257 74.523094,48.761654 
	C94.585129,41.164349 114.624260,33.506321 134.708267,25.967699 
	C136.515091,25.289497 138.579895,25.037212 140.526138,25.031704 
	C162.856995,24.968498 185.188156,24.963444 207.518936,25.037067 
	C209.628677,25.044024 211.860931,25.355909 213.825653,26.090015 
	C233.296890,33.365387 252.748016,40.696651 272.138977,48.182682 
	C275.352570,49.423302 278.248352,51.486958 281.557251,53.408482 
M216.458618,69.952591 
	C202.799652,84.144249 185.879532,90.385658 166.654617,87.600334 
	C140.572067,83.821480 124.065102,68.062302 116.411682,42.180470 
	C102.204155,47.800209 88.343727,52.905293 74.871346,58.884670 
	C71.621605,60.326981 68.481621,64.258926 67.286163,67.732559 
	C57.769634,95.384705 48.763035,123.212029 39.518017,150.958298 
	C38.223415,154.843658 39.708096,156.017838 43.386940,156.301575 
	C53.839443,157.107742 64.274002,158.144089 74.719376,159.046402 
	C79.095291,159.424423 83.480652,159.693039 88.149010,160.032272 
	C88.149010,155.115158 88.111588,150.964920 88.158127,146.815643 
	C88.221611,141.155289 88.311699,135.494629 88.464592,129.836105 
	C88.543701,126.908356 89.486366,124.408821 92.986221,124.532608 
	C96.414909,124.653885 97.362923,127.000465 97.177383,130.064117 
	C97.117065,131.060059 97.168137,132.062729 97.168137,133.062332 
	C97.168152,184.374924 97.253769,235.687881 97.027756,286.999481 
	C97.006554,291.812042 98.567581,293.500854 102.908119,294.742981 
	C150.697006,308.419128 198.387817,308.396301 246.116211,294.433716 
	C249.834579,293.345947 250.937958,291.796509 250.927353,287.942902 
	C250.784821,236.130920 250.831741,184.318420 250.832535,132.506042 
	C250.832550,131.173309 250.350296,129.525711 250.956863,128.577744 
	C252.005463,126.938904 253.886658,124.491615 255.137863,124.646797 
	C256.891083,124.864243 258.879456,126.886124 259.838074,128.643082 
	C260.609619,130.057236 260.006470,132.223495 260.006775,134.056046 
	C260.008209,142.653641 260.007446,151.251251 260.007446,160.285126 
	C274.975739,158.959579 289.229889,157.786606 303.462738,156.395966 
	C309.777588,155.778976 310.096588,155.325104 308.114624,149.281998 
	C299.305420,122.422226 290.450165,95.576416 281.342590,68.817116 
	C280.271515,65.670204 278.035034,62.471455 275.452271,60.404514 
	C272.429382,57.985332 268.529510,56.538921 264.844116,55.093746 
	C253.896820,50.800892 242.868027,46.715832 231.548798,42.427448 
	C228.500977,52.893131 224.146317,61.964146 216.458618,69.952591 
M145.407623,34.441299 
	C144.806808,35.614723 143.434250,37.038879 143.721725,37.923714 
	C147.617188,49.913677 155.550507,57.829903 168.063263,60.411995 
	C180.282974,62.933609 190.552475,58.696709 198.373734,49.460346 
	C201.712738,45.517242 203.371078,40.150990 205.986923,35.053822 
	C203.910004,34.514076 203.284439,34.209728 202.658783,34.209511 
	C183.855453,34.202888 165.052124,34.226299 145.407623,34.441299 
M152.125427,63.502384 
	C142.384186,56.821545 136.198944,47.687206 133.857468,36.094872 
	C124.707886,39.030674 124.399338,39.287601 128.017532,47.572453 
	C129.991882,52.093296 132.386917,56.640076 135.513504,60.411366 
	C148.294220,75.827446 164.826675,82.089859 184.464630,77.877441 
	C203.439880,73.807182 215.631714,61.699135 221.802872,43.383442 
	C222.801758,40.418777 222.067825,38.589691 219.011993,37.707348 
	C217.486679,37.266930 216.006607,36.669807 214.478699,36.133968 
	C206.750290,68.099190 174.394135,77.804405 152.125427,63.502384 
z"/>
<path fill="#FFFEFE" opacity="1.000000" stroke="none" 
	d="
M216.708160,69.702255 
	C224.146317,61.964146 228.500977,52.893131 231.548798,42.427448 
	C242.868027,46.715832 253.896820,50.800892 264.844116,55.093746 
	C268.529510,56.538921 272.429382,57.985332 275.452271,60.404514 
	C278.035034,62.471455 280.271515,65.670204 281.342590,68.817116 
	C290.450165,95.576416 299.305420,122.422226 308.114624,149.281998 
	C310.096588,155.325104 309.777588,155.778976 303.462738,156.395966 
	C289.229889,157.786606 274.975739,158.959579 260.007446,160.285126 
	C260.007446,151.251251 260.008209,142.653641 260.006775,134.056046 
	C260.006470,132.223495 260.609619,130.057236 259.838074,128.643082 
	C258.879456,126.886124 256.891083,124.864243 255.137863,124.646797 
	C253.886658,124.491615 252.005463,126.938904 250.956863,128.577744 
	C250.350296,129.525711 250.832550,131.173309 250.832535,132.506042 
	C250.831741,184.318420 250.784821,236.130920 250.927353,287.942902 
	C250.937958,291.796509 249.834579,293.345947 246.116211,294.433716 
	C198.387817,308.396301 150.697006,308.419128 102.908119,294.742981 
	C98.567581,293.500854 97.006554,291.812042 97.027756,286.999481 
	C97.253769,235.687881 97.168152,184.374924 97.168137,133.062332 
	C97.168137,132.062729 97.117065,131.060059 97.177383,130.064117 
	C97.362923,127.000465 96.414909,124.653885 92.986221,124.532608 
	C89.486366,124.408821 88.543701,126.908356 88.464592,129.836105 
	C88.311699,135.494629 88.221611,141.155289 88.158127,146.815643 
	C88.111588,150.964920 88.149010,155.115158 88.149010,160.032272 
	C83.480652,159.693039 79.095291,159.424423 74.719376,159.046402 
	C64.274002,158.144089 53.839443,157.107742 43.386940,156.301575 
	C39.708096,156.017838 38.223415,154.843658 39.518017,150.958298 
	C48.763035,123.212029 57.769634,95.384705 67.286163,67.732559 
	C68.481621,64.258926 71.621605,60.326981 74.871346,58.884670 
	C88.343727,52.905293 102.204155,47.800209 116.411682,42.180470 
	C124.065102,68.062302 140.572067,83.821480 166.654617,87.600334 
	C185.879532,90.385658 202.799652,84.144249 216.708160,69.702255 
z"/>
<path fill="#FEFDFD" opacity="1.000000" stroke="none" 
	d="
M145.828217,34.343147 
	C165.052124,34.226299 183.855453,34.202888 202.658783,34.209511 
	C203.284439,34.209728 203.910004,34.514076 205.986923,35.053822 
	C203.371078,40.150990 201.712738,45.517242 198.373734,49.460346 
	C190.552475,58.696709 180.282974,62.933609 168.063263,60.411995 
	C155.550507,57.829903 147.617188,49.913677 143.721725,37.923714 
	C143.434250,37.038879 144.806808,35.614723 145.828217,34.343147 
z"/>
<path fill="#FDF8FB" opacity="1.000000" stroke="none" 
	d="
M152.429779,63.708885 
	C174.394135,77.804405 206.750290,68.099190 214.478699,36.133968 
	C216.006607,36.669807 217.486679,37.266930 219.011993,37.707348 
	C222.067825,38.589691 222.801758,40.418777 221.802872,43.383442 
	C215.631714,61.699135 203.439880,73.807182 184.464630,77.877441 
	C164.826675,82.089859 148.294220,75.827446 135.513504,60.411366 
	C132.386917,56.640076 129.991882,52.093296 128.017532,47.572453 
	C124.399338,39.287601 124.707886,39.030674 133.857468,36.094872 
	C136.198944,47.687206 142.384186,56.821545 152.429779,63.708885 
z"/>
</svg>